<svg width="94" height="42" viewBox="0 0 94 42" fill="none" xmlns="http://www.w3.org/2000/svg">
<g id="logo">
<path d="M10.704 15.5612L9.696 18.8732H0V18.4412L0.368 18.3612C0.928 18.2652 1.264 18.2172 1.728 17.8492C2.08 17.5772 2.176 16.5692 2.176 16.0572V9.4972C2.176 8.9372 2.032 8.3772 1.632 8.1212C1.36 7.9292 0.848 7.8492 0.32 7.7532L0 7.6892V7.2732H5.968V7.6892L5.648 7.7372C5.104 7.8332 4.56 7.9932 4.32 8.2492C4.192 8.3932 3.856 8.7132 3.856 9.7852V16.5052C3.856 18.3452 4.048 18.2652 6.16 18.2652C8.496 18.2812 8.912 17.5292 9.84 16.2172L10.384 15.4332L10.704 15.5612Z" fill="#2B354F"/>
<path d="M23.8673 18.8732H18.8913V18.4412L19.2432 18.3292C19.5793 18.2332 19.8512 18.2172 20.0433 17.8812C20.2513 17.4972 20.1712 17.0332 19.9792 16.5692L19.0673 14.0732H15.3872L14.4913 16.7132C14.2992 17.3372 14.4272 17.9452 14.7473 18.1372C15.1473 18.3772 15.4993 18.4412 15.9792 18.4412H16.3153V18.8732H11.4993V18.4412L11.8512 18.3772C12.2352 18.3132 12.5232 18.1532 12.8112 17.9452C12.9872 17.8172 13.4352 17.0332 13.5472 16.7612L16.8272 7.9772L16.7633 7.5292C17.0352 7.4172 17.2113 7.3532 17.4513 7.1612C17.7073 6.9852 17.8512 6.8412 18.0273 6.5852L18.1233 6.5692L21.9313 16.7132C22.1073 17.1772 22.2992 17.6732 22.5233 17.8652C22.7313 18.0572 23.0993 18.4412 23.5473 18.4412H23.8673V18.8732ZM18.6833 13.1132L17.1952 9.1292L15.6912 13.1132H18.6833Z" fill="#2B354F"/>
<path d="M36.2998 18.8572H31.4037V18.4412L31.7078 18.3612C32.0117 18.2972 32.2518 18.1532 32.3158 17.7692C32.3477 17.4332 31.8517 16.6652 31.8197 16.6172L30.2997 13.8652L28.8118 16.5372C28.6357 16.8572 28.4597 17.4492 28.5077 17.7372C28.5718 18.0892 28.9237 18.3292 29.3398 18.3932L29.5637 18.4412V18.8572H24.8277V18.4412L25.1637 18.3932C25.7558 18.3132 26.0278 18.2332 26.5397 17.9452C27.0997 17.6252 27.7078 16.7932 27.7397 16.7612L29.8838 13.2732L27.5317 9.2572C27.5157 9.2092 27.1158 8.5052 26.6998 8.2172C26.3318 7.9452 26.0437 7.8972 25.6117 7.7692L25.2757 7.6892V7.2732H30.1558V7.6892L29.9638 7.7372C29.7078 7.7692 29.3557 7.8812 29.2437 8.1692C29.1157 8.4892 29.3557 8.9532 29.3717 8.9852L30.9718 11.7532L32.3317 9.4652C32.3477 9.4172 32.6997 8.6652 32.5877 8.2972C32.5077 7.9932 32.2197 7.7852 31.8838 7.7372L31.6117 7.6892V7.2732H35.9958V7.6892L35.5957 7.7212C35.0998 7.7372 34.8118 7.8972 34.3958 8.1532C33.8198 8.5052 33.2598 9.4492 33.2277 9.4812L31.3558 12.4092L33.9958 16.9212C34.0117 16.9692 34.4598 17.6732 34.7798 17.8492C35.1478 18.0892 35.4838 18.2972 35.9798 18.3772L36.2998 18.4412V18.8572Z" fill="#2B354F"/>
<path d="M46.2744 7.2732L46.0344 9.9772L45.6024 9.9932L45.5704 9.6252C45.5544 9.5612 45.5384 8.7612 44.9624 8.3132C44.3704 7.8492 43.6824 7.8652 42.8184 7.8652H40.9944V12.6332H42.6264C43.2504 12.6332 43.7784 12.6812 44.2104 12.3932C44.5784 12.1692 44.8824 11.8332 44.9624 11.3372L45.0424 10.9532H45.4104V15.2412H45.0424L44.9624 14.8412C44.8824 14.3612 44.6904 13.9932 44.3224 13.7372C44.0184 13.5292 43.2984 13.5292 42.6264 13.5292H40.9944V16.0892C40.9944 17.0332 41.0104 17.5932 41.5224 17.9292C41.7944 18.1212 42.4184 18.2972 43.0104 18.3772L43.3944 18.4412V18.8732H37.1864V18.4412L37.5544 18.3932C38.1464 18.3132 38.6104 18.1532 38.9304 17.8012C39.2024 17.4972 39.2504 16.4732 39.2504 16.0892V9.7052C39.2504 9.1932 39.2984 8.6652 38.8504 8.2172C38.6104 7.9772 38.0824 7.6892 37.5384 7.6892H37.2024V7.2732H46.2744Z" fill="#2B354F"/>
<path d="M59.7319 12.9212C59.7319 17.4012 56.4839 19.1292 53.3639 19.1292C50.6599 19.1292 47.1079 17.4172 47.1079 13.0332C47.1079 10.1692 49.0279 7.0332 53.6519 7.0332C57.8119 7.0332 59.7319 10.2492 59.7319 12.9212ZM57.5559 13.4172C57.5559 10.5212 55.9719 7.6412 53.2519 7.6412C50.2759 7.6412 49.2839 10.5372 49.2839 12.6972C49.2839 15.6892 51.2519 18.4732 53.7639 18.4732C56.0839 18.4732 57.5559 16.3292 57.5559 13.4172Z" fill="#2B354F"/>
<path d="M30.1972 35.2612C30.4958 35.1349 30.6508 34.5922 30.6621 33.6331C30.6613 32.6236 30.5113 31.7651 30.2122 31.0578C30.0061 30.5705 29.7756 30.3761 29.5208 30.4746C29.2771 30.5777 29.0812 30.8922 28.9331 31.4181C28.7928 31.9407 28.7099 32.5224 28.6844 33.1632C28.6374 34.5636 28.6701 35.5828 28.7825 36.2209C29.1637 38.2833 29.3721 39.5757 29.4078 40.098C29.4717 41.016 29.3269 41.5498 28.9732 41.6994C28.6982 41.8157 28.4808 41.6853 28.3213 41.308C28.2282 41.088 28.1524 40.7772 28.0938 40.3758C27.9684 39.4004 27.9956 38.4022 28.1753 37.3811L28.3091 36.8103C28.2302 36.4267 28.1085 35.876 27.9438 35.1581C27.6112 33.7144 27.4045 32.7549 27.3239 32.2794C27.2478 31.7927 27.2472 31.4409 27.3222 31.2239C27.4017 30.9957 27.4925 30.86 27.5947 30.8167C27.7912 30.7336 27.8952 30.7823 27.9066 30.9628C27.9827 31.6903 28.1008 32.5391 28.2609 33.5091L28.3434 33.4742C28.4056 31.4744 28.7471 30.3432 29.368 30.0806C29.871 29.8679 30.3217 30.0571 30.72 30.6484C30.8457 30.8361 30.9535 31.0361 31.0432 31.2483C31.2626 31.767 31.3824 32.3788 31.4026 33.0837C31.4381 34.0878 31.229 34.8202 30.7753 35.2808C30.6401 35.4213 30.4901 35.5265 30.325 35.5963C29.9399 35.7592 29.6262 35.6417 29.3838 35.2439C29.346 35.1765 29.3385 35.1149 29.3611 35.0589C29.3838 35.003 29.426 34.9713 29.4877 34.9637C29.5493 34.9562 29.5974 34.9822 29.6318 35.0417C29.7808 35.2845 29.9693 35.3576 30.1972 35.2612ZM28.8032 41.396C29.1097 41.2664 28.9851 39.9201 28.4292 37.3571C28.2713 38.2763 28.237 39.2358 28.3264 40.2357C28.3668 40.6819 28.427 40.9993 28.5067 41.1879C28.5865 41.3765 28.6853 41.4459 28.8032 41.396Z" fill="#2B354F"/>
<path d="M31.9772 23.5569C32.3309 23.4073 32.6074 23.5683 32.8069 24.0399C32.8567 24.1578 32.9031 24.3003 32.946 24.4675C33.1439 25.264 33.1592 26.1655 32.992 27.172C32.8731 27.8986 32.6841 28.4048 32.425 28.6904C32.6269 29.6056 32.8151 30.434 32.9897 31.1755L33.0722 31.1406C33.1108 29.3917 33.4681 28.3743 34.144 28.0884C34.3876 27.9854 34.6078 27.9803 34.8046 28.0731C35.0092 28.1626 35.1663 28.337 35.276 28.5964C35.3857 28.8557 35.5246 29.4687 35.6925 30.4354C35.8571 31.3942 36.0126 32.0465 36.1588 32.3923C36.3749 32.9032 36.5773 33.1187 36.7659 33.0389C36.7891 33.0939 36.7771 33.1639 36.7296 33.2489C36.6821 33.3338 36.6112 33.3962 36.5169 33.4361C36.0611 33.6289 35.6819 33.3677 35.3794 32.6525C35.1933 32.2124 35.0313 31.5118 34.8936 30.5509C34.7604 29.5788 34.6406 28.967 34.5343 28.7155C34.4279 28.464 34.2765 28.3798 34.08 28.4629C33.8521 28.5593 33.682 28.8583 33.5698 29.3597C33.4576 29.8612 33.4099 30.4604 33.4268 31.1574C33.4394 32.2825 33.4837 33.2088 33.5598 33.9363C33.5791 34.1134 33.5456 34.2203 33.4591 34.2569C33.3176 34.3167 33.175 34.2751 33.0311 34.1321C32.9519 34.0544 32.8907 33.9645 32.8475 33.8623C32.801 33.7523 32.7493 33.5425 32.6925 33.233C32.6324 32.9156 32.5241 32.3638 32.3676 31.5776C32.2033 30.7947 32.0724 30.1459 31.9752 29.6311C31.8746 29.1085 31.7664 28.5242 31.6507 27.8782C31.5317 27.2244 31.453 26.6879 31.4147 26.2687C31.3809 25.8382 31.3694 25.4169 31.3804 25.0046C31.3931 24.2024 31.5921 23.7198 31.9772 23.5569ZM32.5457 24.1781C32.4393 23.9267 32.3038 23.8033 32.139 23.8081C31.6753 24.0043 31.7444 25.5038 32.3462 28.3068C32.5675 27.9538 32.7075 27.3757 32.7662 26.5726C32.8386 25.495 32.7651 24.6969 32.5457 24.1781Z" fill="#2B354F"/>
<path d="M38.8417 31.9942C38.2208 32.2568 37.7126 31.9205 37.317 30.9852C37.0876 30.4429 36.9781 29.7897 36.9885 29.0256C37.0125 27.987 37.2706 27.2061 37.7627 26.683C37.9383 26.5068 38.1323 26.3738 38.3445 26.284C38.5645 26.191 38.764 26.1807 38.943 26.2533C39.1219 26.3258 39.2446 26.4407 39.3111 26.5979C39.341 26.6686 39.3167 26.7206 39.2381 26.7539C39.164 26.7759 39.112 26.7516 39.0821 26.6808C39.0522 26.6101 38.9863 26.5638 38.8844 26.5421C38.7871 26.5091 38.6677 26.5226 38.5262 26.5824C38.0311 26.7918 37.7709 27.4253 37.7457 28.483C37.7175 29.4677 37.8596 30.3295 38.1721 31.0683C38.3649 31.5241 38.5595 31.7105 38.756 31.6274C38.9604 31.541 39.1325 31.2689 39.2725 30.8113C39.4171 30.3425 39.5148 29.8287 39.5656 29.2698C39.6866 28.0883 39.7361 27.34 39.7141 27.025C39.6921 26.7101 39.7361 26.5293 39.8461 26.4828C40.0426 26.3997 40.2106 26.5232 40.3502 26.8533C40.3935 26.9554 40.4315 27.0783 40.4645 27.2219C40.737 28.5891 40.903 29.3759 40.9625 29.5823C41.0299 29.7855 41.0818 29.9303 41.1184 30.0167C41.278 30.394 41.4481 30.5444 41.6289 30.4679C41.8332 30.3815 42.0054 29.989 42.1454 29.2905C42.2855 28.592 42.3744 27.915 42.4123 27.2597L42.469 26.2768L42.7873 26.1421C42.7801 26.2564 42.772 26.4127 42.7633 26.611C42.759 26.7981 42.7349 27.1464 42.6911 27.656C42.6438 28.1578 42.5846 28.6091 42.5132 29.0099C42.4497 29.4073 42.347 29.7889 42.2052 30.1547C42.0679 30.5092 41.9089 30.7247 41.7281 30.8012C41.1466 31.0471 40.6763 30.7457 40.3173 29.8969C40.1976 29.614 40.0894 29.2706 39.9927 28.8668L39.9102 28.9017C39.7402 30.734 39.384 31.7648 38.8417 31.9942Z" fill="#2B354F"/>
<path d="M43.7813 29.8911C43.5612 29.9842 43.3797 29.8617 43.2368 29.5238C43.1603 29.343 42.8236 27.9335 42.2266 25.2953C42.1882 25.1169 42.2241 25.0045 42.3341 24.958C42.4756 24.8981 42.6249 24.9554 42.782 25.1298C42.8679 25.2233 42.939 25.3368 42.9956 25.4704C43.0487 25.5961 43.0912 25.7403 43.1229 25.9029L43.3432 26.9494L43.4021 26.9245C43.4132 25.0667 43.7017 24.0182 44.2675 23.7789C44.5819 23.6459 44.855 23.7111 45.0868 23.9744C45.1759 24.0756 45.2538 24.2049 45.3203 24.3621C45.3834 24.5114 45.41 24.6947 45.4 24.912C45.3803 25.2817 45.2211 25.5297 44.9225 25.656C44.8596 25.6826 44.8019 25.6885 44.7493 25.6737C44.7045 25.6555 44.6666 25.6206 44.6355 25.5689C44.6984 25.5423 44.7327 25.3935 44.7385 25.1223C44.7409 24.8434 44.7084 24.6023 44.6411 24.3992C44.5737 24.196 44.4587 24.1103 44.296 24.1421C44.021 24.2584 43.8461 24.7539 43.7713 25.6287C43.6965 26.5034 43.6832 27.3152 43.7311 28.0639C43.7791 28.8126 43.825 29.2935 43.8688 29.5066C43.9126 29.7197 43.8834 29.8479 43.7813 29.8911Z" fill="#2B354F"/>
<path d="M47.5686 28.2892C47.3486 28.3823 47.1671 28.2599 47.0242 27.9219C46.9477 27.7412 46.611 26.3316 46.014 23.6934C45.9678 23.5184 46.0036 23.406 46.1215 23.3561C46.2629 23.2963 46.4123 23.3535 46.5694 23.528C46.6552 23.6214 46.7264 23.7349 46.7829 23.8685C46.8361 23.9942 46.8786 24.1384 46.9103 24.3011L47.1124 25.2718L47.1831 25.2419C47.2166 23.3932 47.5555 22.3326 48.2 22.06C48.4201 21.967 48.6262 21.9724 48.8184 22.0764C49.0185 22.1771 49.1651 22.3375 49.2582 22.5575C49.431 22.9662 49.5842 23.5037 49.7177 24.1699L49.7649 24.1499C49.818 22.4134 50.1668 21.4089 50.8112 21.1363C51.0234 21.0465 51.2296 21.052 51.4297 21.1527C51.6297 21.2534 51.7846 21.4334 51.8943 21.6927C52.004 21.9521 52.1345 22.5455 52.2859 23.4728C52.4451 24.3969 52.5978 25.0318 52.7441 25.3776C52.9601 25.8885 53.1625 26.104 53.3511 26.0242C53.3744 26.0792 53.3623 26.1492 53.3148 26.2341C53.2673 26.3191 53.1964 26.3815 53.1021 26.4214C52.6463 26.6142 52.2671 26.353 51.9646 25.6378C51.7752 25.1898 51.6165 24.4971 51.4888 23.5598C51.3577 22.6146 51.2423 22.0241 51.1426 21.7883C51.0395 21.5447 50.9094 21.4561 50.7522 21.5226C50.4614 21.6456 50.2691 22.1438 50.1754 23.0174C50.0861 23.8797 50.0599 24.683 50.0967 25.4272C50.1413 26.1681 50.1839 26.6411 50.2244 26.8463C50.2615 27.0437 50.229 27.164 50.1268 27.2072C49.9068 27.3003 49.7253 27.1779 49.5823 26.8399C49.5292 26.7142 49.4082 26.2419 49.2193 25.423C48.887 23.9144 48.6643 23.0264 48.5513 22.7592C48.435 22.4841 48.2982 22.3799 48.141 22.4463C47.9288 22.5361 47.7743 22.8609 47.6775 23.4206C47.5774 23.9726 47.5347 24.5836 47.5495 25.2537C47.5662 26.6735 47.6062 27.5785 47.6693 27.9687C47.7044 28.1392 47.6708 28.246 47.5686 28.2892Z" fill="#2B354F"/>
<path d="M55.3479 25.0129C54.727 25.2755 54.2188 24.9392 53.8232 24.0039C53.5939 23.4616 53.4844 22.8084 53.4947 22.0443C53.5187 21.0057 53.7768 20.2248 54.2689 19.7017C54.4446 19.5255 54.6385 19.3925 54.8507 19.3027C55.0707 19.2097 55.2702 19.1994 55.4492 19.272C55.6281 19.3445 55.7508 19.4594 55.8173 19.6166C55.8472 19.6873 55.8229 19.7393 55.7443 19.7725C55.6702 19.7946 55.6182 19.7703 55.5883 19.6995C55.5584 19.6288 55.4925 19.5825 55.3906 19.5608C55.2933 19.5278 55.1739 19.5413 55.0325 19.6011C54.5373 19.8105 54.2772 20.444 54.2519 21.5017C54.2237 22.4864 54.3659 23.3482 54.6783 24.087C54.8711 24.5428 55.0658 24.7292 55.2622 24.6461C55.4666 24.5597 55.6387 24.2876 55.7787 23.83C55.9233 23.3612 56.021 22.8474 56.0718 22.2885C56.1928 21.107 56.2423 20.3587 56.2203 20.0437C56.1983 19.7288 56.2423 19.548 56.3523 19.5015C56.5488 19.4184 56.7168 19.5419 56.8565 19.872C56.8997 19.9741 56.9377 20.097 56.9707 20.2406C57.2432 21.6078 57.4092 22.3946 57.4687 22.601C57.5361 22.8042 57.5881 22.949 57.6246 23.0354C57.7842 23.4127 57.9543 23.5631 58.1351 23.4866C58.3394 23.4002 58.5116 23.0077 58.6516 22.3092C58.7917 21.6107 58.8806 20.9337 58.9185 20.2784L58.9753 19.2955L59.2935 19.1608C59.2863 19.2751 59.2783 19.4314 59.2695 19.6297C59.2652 19.8168 59.2411 20.1651 59.1973 20.6747C59.1501 21.1765 59.0908 21.6278 59.0194 22.0286C58.9559 22.426 58.8532 22.8076 58.7114 23.1734C58.5741 23.5279 58.4151 23.7434 58.2344 23.8199C57.6528 24.0658 57.1825 23.7644 56.8235 22.9156C56.7038 22.6327 56.5956 22.2893 56.499 21.8855L56.4164 21.9204C56.2464 23.7527 55.8902 24.7835 55.3479 25.0129Z" fill="#2B354F"/>
<path d="M59.24 15.9314L59.2636 15.9214C59.3376 15.8994 59.4059 15.9076 59.4685 15.9459C59.5311 15.9843 59.5756 16.035 59.6022 16.0979C59.6255 16.1529 59.622 16.298 59.5917 16.5331C59.5694 16.7649 59.5831 16.9398 59.6329 17.0577C59.6795 17.1677 59.7401 17.2672 59.8147 17.3561C59.8861 17.4371 60.084 17.6313 60.4086 17.9387C61.1192 18.6111 61.6124 19.2734 61.8883 19.9257C62.1609 20.5702 62.2101 21.1794 62.0359 21.7534C61.8696 22.324 61.5428 22.7124 61.0555 22.9185C60.5761 23.1213 60.2134 22.9319 59.9674 22.3503C59.7181 21.7608 59.6605 21.044 59.7945 20.1998C59.8752 19.7116 60.0155 19.3095 60.2154 18.9933C60.2707 18.9051 60.3268 18.8953 60.3836 18.9639C60.4483 19.0292 60.4591 19.0987 60.4162 19.1724C60.1 19.6953 59.9674 20.3676 60.0183 21.1891C60.063 21.93 60.2289 22.3879 60.516 22.563C60.6188 22.6307 60.7291 22.6396 60.847 22.5898C61.1928 22.4435 61.3659 22.097 61.3663 21.5502C61.3666 21.0034 61.2205 20.3842 60.928 19.6925C60.6754 19.0952 60.3703 18.5711 60.0128 18.1201C59.6553 17.669 59.452 17.4076 59.403 17.3356C59.3567 17.8833 59.3141 18.4943 59.275 19.1687L58.9567 19.3033C59.029 18.2257 59.0923 17.4114 59.1465 16.8604C58.9652 16.3441 58.9963 16.0345 59.24 15.9314Z" fill="#2B354F"/>
<path d="M63.7609 19.4116C64.1631 20.3626 64.7021 20.6952 65.378 20.4093C65.6295 20.3029 65.8463 20.0815 66.0283 19.7451C66.2148 19.3976 66.3556 19.0184 66.4505 18.6076C66.6477 17.6718 66.7521 16.9328 66.7636 16.3905L66.7773 15.9956L67.0956 15.861C67.0949 16.2319 67.063 16.704 66.9997 17.2774C66.9332 17.8429 66.8485 18.3327 66.7457 18.7468C66.6429 19.1609 66.4852 19.5658 66.2727 19.9614C66.0568 20.3492 65.8035 20.6046 65.5127 20.7276C64.3495 21.2196 63.492 20.8132 62.9402 19.5086C62.6843 18.9034 62.6051 18.2235 62.7029 17.4687C62.8344 16.4217 63.2578 15.7469 63.973 15.4444C64.476 15.2317 64.8439 15.4004 65.0766 15.9505C65.2494 16.3592 65.2717 16.8501 65.1435 17.4232C64.956 18.2066 64.5692 18.7269 63.9831 18.9841C63.8966 19.0207 63.825 19.0047 63.7682 18.936L63.7364 18.8939C64.1451 18.721 64.4211 18.2893 64.5645 17.5986C64.7124 16.8967 64.7099 16.3651 64.557 16.0035C64.4539 15.7599 64.3081 15.678 64.1195 15.7577C63.7029 15.9339 63.4684 16.4639 63.4161 17.3477C63.38 18.0949 63.4949 18.7829 63.7609 19.4116Z" fill="#2B354F"/>
<path d="M71.4362 17.8609C71.6405 17.7745 71.8127 17.382 71.9527 16.6835C72.0927 15.985 72.1817 15.3081 72.2195 14.6527L72.2763 13.6698L72.5946 13.5352C72.5873 13.6494 72.5793 13.8057 72.5705 14.004C72.5663 14.1911 72.5422 14.5394 72.4983 15.0491C72.4511 15.5508 72.3918 16.0021 72.3204 16.4029C72.2569 16.8004 72.1543 17.182 72.0125 17.5477C71.8752 17.9022 71.6965 18.126 71.4765 18.2191C71.2564 18.3122 71.0474 18.3218 70.8494 18.2481C70.6034 18.1483 70.389 17.8823 70.2061 17.45C70.0233 17.0177 69.857 16.4164 69.7071 15.6459L69.6246 15.6808C69.5053 17.9178 69.147 19.1627 68.5497 19.4153C68.0231 19.638 67.6152 19.4075 67.326 18.7237C67.1166 18.2286 66.9116 17.1525 66.7111 15.4955C66.6625 15.1176 66.6268 14.8362 66.6042 14.6512C66.5782 14.4584 66.6163 14.3404 66.7185 14.2971C66.8599 14.2373 67.0053 14.2963 67.1546 14.474C67.2226 14.5472 67.2849 14.6506 67.3414 14.7842C67.3946 14.9099 67.4348 15.0597 67.4619 15.2335C67.4858 15.3994 67.5263 15.7251 67.5833 16.2106C67.7374 17.5167 67.8991 18.3702 68.0687 18.771C68.1784 19.0303 68.3118 19.1268 68.469 19.0603C68.6655 18.9772 68.8225 18.7023 68.9402 18.2356C69.0669 17.7466 69.1475 17.2909 69.182 16.8686C69.2165 16.4464 69.2422 16.1019 69.2591 15.8353C69.2761 15.5688 69.2897 15.2943 69.3 15.012C69.307 14.7218 69.3087 14.4848 69.3051 14.3011C69.3094 14.1139 69.313 13.9364 69.316 13.7683C69.3158 13.5924 69.314 13.5005 69.3106 13.4926C69.3116 13.2977 69.3553 13.1819 69.4417 13.1454C69.5832 13.0855 69.7286 13.1445 69.8779 13.3222C69.9492 13.4032 70.0131 13.5105 70.0696 13.6442C70.1261 13.7778 70.1702 13.9259 70.202 14.0885C70.2304 14.2433 70.269 14.4771 70.3179 14.7899C70.3669 15.1028 70.4099 15.3579 70.4471 15.5553C70.4842 15.7527 70.5302 15.9927 70.5848 16.2753C70.6891 16.7408 70.8127 17.1425 70.9556 17.4805C71.0952 17.8106 71.2554 17.9374 71.4362 17.8609Z" fill="#2B354F"/>
<path d="M71.2694 12.1917C71.2328 12.1052 71.2695 12.0387 71.3796 11.9922L71.9926 11.7329C71.9654 11.5591 71.9334 11.341 71.8965 11.0786L71.8023 10.3958C71.773 10.1951 71.7425 10.0134 71.7108 9.85082C71.6869 9.68488 71.7261 9.5803 71.8282 9.53708C71.9618 9.48057 72.0994 9.54286 72.2408 9.72393C72.3009 9.80041 72.3576 9.90152 72.4108 10.0273C72.464 10.153 72.5085 10.3241 72.5445 10.5405L72.6645 11.4487L73.3955 11.1396C73.4662 11.1096 73.5233 11.1133 73.5668 11.1505C73.6182 11.1843 73.6382 11.2315 73.6267 11.2919C73.6197 11.3412 73.5809 11.3808 73.5101 11.4107L72.7085 11.7498C72.9957 13.7871 73.3006 15.1869 73.623 15.9492C73.859 16.5073 74.1028 16.7331 74.3543 16.6267C74.5586 16.5403 74.7308 16.1478 74.8708 15.4493C75.0108 14.7508 75.0998 14.0738 75.1376 13.4185L75.1944 12.4356L75.5127 12.3009C75.5054 12.4152 75.4974 12.5715 75.4886 12.7698C75.4844 12.9569 75.4603 13.3052 75.4164 13.8148C75.3692 14.3166 75.3099 14.7679 75.2385 15.1687C75.175 15.5661 75.0724 15.9477 74.9306 16.3135C74.7933 16.668 74.6186 16.8902 74.4064 16.9799C74.1942 17.0697 73.9812 17.081 73.7675 17.0138C73.5584 16.9355 73.3809 16.7789 73.2353 16.5441C73.0784 16.3047 72.9435 16.0513 72.8305 15.7841C72.5679 15.1632 72.2993 13.9149 72.0247 12.039L71.4942 12.2633C71.4314 12.2899 71.3815 12.2925 71.3446 12.271C71.3044 12.2417 71.2793 12.2153 71.2694 12.1917Z" fill="#2B354F"/>
<path d="M74.96 8.37926C75.1408 8.3028 75.2827 8.38639 75.3858 8.63003C75.4888 8.87367 75.454 9.12001 75.2814 9.36906C75.1967 9.49752 75.1112 9.58002 75.0247 9.61659C74.899 9.66978 74.8077 9.66206 74.7509 9.59344L74.7241 9.56306C74.7949 9.53314 74.8144 9.43687 74.7827 9.27425C74.7476 9.10377 74.73 8.93057 74.7297 8.75465C74.7339 8.56754 74.8107 8.44241 74.96 8.37926ZM77.0726 15.477C77.2769 15.3906 77.4491 14.9981 77.5891 14.2996C77.7291 13.6011 77.8181 12.9241 77.8559 12.2688L77.9127 11.2859L78.231 11.1512C78.2238 11.2655 78.2157 11.4218 78.2069 11.6201C78.2027 11.8072 78.1786 12.1555 78.1347 12.6651C78.0875 13.1669 78.0282 13.6182 77.9569 14.019C77.8933 14.4164 77.7907 14.798 77.6489 15.1638C77.5116 15.5183 77.3526 15.7338 77.1718 15.8103C76.5902 16.0562 76.1399 15.802 75.8208 15.0475C75.5814 14.4816 75.3536 13.4939 75.1374 12.0845C75.1123 11.9376 75.0927 11.8254 75.0785 11.748C75.0721 11.6673 75.0575 11.567 75.0345 11.447C75.0082 11.3191 74.9869 11.203 74.9706 11.0987C74.9401 10.9171 74.976 10.8046 75.0781 10.7614C75.2196 10.7016 75.365 10.7606 75.5143 10.9383C75.5856 11.0193 75.6495 11.1266 75.706 11.2602C75.7625 11.3938 75.8066 11.542 75.8384 11.7046C75.8668 11.8593 75.9054 12.0932 75.9544 12.406C76.0033 12.7189 76.0463 12.974 76.0835 13.1714C76.1207 13.3687 76.1705 13.6071 76.233 13.8864C76.3294 14.3552 76.4491 14.7586 76.592 15.0965C76.7316 15.4266 76.8918 15.5534 77.0726 15.477Z" fill="#2B354F"/>
<path d="M78.9657 13.0364C79.3546 13.9559 79.8674 14.281 80.504 14.0118C80.7555 13.9054 80.9722 13.684 81.1542 13.3476C81.3407 13 81.4815 12.6209 81.5764 12.2101C81.7736 11.2743 81.878 10.5353 81.8895 9.99301L81.9032 9.5981L82.2215 9.46347C82.2208 9.83435 82.1889 10.3065 82.1257 10.8799C82.0591 11.4454 81.9744 11.9352 81.8716 12.3493C81.7688 12.7634 81.6111 13.1683 81.3986 13.5639C81.1827 13.9517 80.9294 14.2071 80.6386 14.3301C79.8212 14.6758 79.1446 14.5219 78.6088 13.8683C78.4383 13.6625 78.2783 13.3827 78.1287 13.029C77.9758 12.6675 77.8997 12.1808 77.9004 11.569C77.8968 10.6626 78.1176 9.95769 78.5625 9.45447C78.7394 9.25922 78.9339 9.11672 79.1461 9.02697C79.3662 8.9339 79.564 8.91971 79.7396 8.98442C79.9488 9.06273 80.0932 9.19619 80.173 9.38482C80.2495 9.56558 80.3013 9.74286 80.3285 9.91667C80.3557 10.0905 80.333 10.2668 80.2604 10.4458C80.1924 10.6135 80.0837 10.729 79.9344 10.7921C79.8715 10.8187 79.8061 10.7955 79.7381 10.7223C79.8009 10.6957 79.8369 10.5508 79.846 10.2875C79.8597 10.013 79.8199 9.76579 79.7269 9.54572C79.6338 9.32567 79.4929 9.25552 79.3043 9.3353C78.8956 9.50815 78.6669 10.0079 78.6182 10.8346C78.5773 11.658 78.6931 12.3919 78.9657 13.0364Z" fill="#2B354F"/>
<path d="M83.7265 13.0102C83.1056 13.2728 82.5974 12.9364 82.2018 12.0012C81.9725 11.4589 81.863 10.8057 81.8733 10.0416C81.8973 9.00298 82.1554 8.2221 82.6475 7.69893C82.8232 7.52273 83.0171 7.38975 83.2293 7.3C83.4493 7.20693 83.6488 7.19667 83.8278 7.26924C84.0067 7.3418 84.1294 7.45667 84.1959 7.61386C84.2258 7.68459 84.2015 7.73658 84.1229 7.76982C84.0488 7.79188 83.9968 7.76754 83.9669 7.69681C83.937 7.62607 83.8711 7.57982 83.7692 7.55804C83.6719 7.52509 83.5525 7.53853 83.411 7.59836C82.9159 7.80778 82.6557 8.4413 82.6305 9.49892C82.6023 10.4837 82.7445 11.3455 83.0569 12.0843C83.2497 12.5401 83.4444 12.7265 83.6408 12.6434C83.8452 12.5569 84.0173 12.2849 84.1573 11.8273C84.3019 11.3585 84.3996 10.8447 84.4504 10.2858C84.5714 9.10422 84.6209 8.35597 84.5989 8.041C84.5769 7.72604 84.6209 7.54529 84.7309 7.49875C84.9274 7.41565 85.0954 7.53914 85.235 7.86923C85.2783 7.97141 85.3163 8.09428 85.3493 8.23786C85.6218 9.60504 85.7878 10.3919 85.8473 10.5983C85.9147 10.8014 85.9667 10.9462 86.0032 11.0327C86.1628 11.4099 86.3329 11.5603 86.5137 11.4839C86.718 11.3974 86.8902 11.005 87.0302 10.3064C87.1703 9.60793 87.2592 8.93101 87.2971 8.2757L87.3538 7.29274L87.6721 7.15811C87.6649 7.27237 87.6569 7.42864 87.6481 7.62693C87.6438 7.81403 87.6197 8.16239 87.5759 8.672C87.5286 9.17376 87.4694 9.62504 87.398 10.0258C87.3345 10.4233 87.2318 10.8049 87.09 11.1706C86.9527 11.5252 86.7937 11.7407 86.613 11.8171C86.0314 12.0631 85.5611 11.7617 85.2021 10.9129C85.0824 10.63 84.9742 10.2866 84.8775 9.88274L84.795 9.91764C84.625 11.75 84.2688 12.7808 83.7265 13.0102Z" fill="#2B354F"/>
<path d="M88.2866 2.35365C88.2571 1.49521 88.1858 0.932385 88.0728 0.665169C87.9598 0.397954 87.8331 0.284742 87.6929 0.325532C87.3235 0.481764 87.1893 1.23802 87.2905 2.5943C87.3961 3.93939 87.6042 5.29674 87.9148 6.66634C88.2299 8.02476 88.4988 8.96726 88.7215 9.49383C89.0972 10.3819 89.505 10.7329 89.9452 10.5468C89.9684 10.6018 89.9563 10.6717 89.9089 10.7567C89.8614 10.8416 89.7905 10.904 89.6962 10.9439C89.0517 11.2165 88.4852 10.7751 87.9965 9.6198C87.817 9.19539 87.6214 8.51376 87.4096 7.5749C87.1945 6.62818 87.0099 5.62222 86.8559 4.55702C86.7019 3.49181 86.6757 2.52078 86.7773 1.64392C86.8756 0.759196 87.1331 0.228746 87.5496 0.0525701C87.8797 -0.0870413 88.1328 0.0514238 88.309 0.467966C88.442 0.782337 88.5299 1.26401 88.5727 1.91298C88.6609 3.17283 88.5839 4.50249 88.342 5.90196C88.2764 6.27253 88.2071 6.57978 88.1342 6.8237C88.1149 6.88747 88.0886 6.88007 88.0553 6.80147C87.9843 6.65547 87.9648 6.51083 87.9969 6.36756C88.2325 5.1283 88.3291 3.79033 88.2866 2.35365Z" fill="#2B354F"/>
<path d="M90.4104 2.74789L90.434 2.73792C90.508 2.71586 90.5763 2.72403 90.6389 2.76243C90.7015 2.80082 90.746 2.85145 90.7726 2.91433C90.7959 2.96934 90.7924 3.11443 90.7622 3.34959C90.7398 3.58143 90.7535 3.75629 90.8034 3.87418C90.8499 3.98421 90.9105 4.08366 90.9851 4.17253C91.0565 4.25355 91.2544 4.44778 91.579 4.75522C92.2896 5.42753 92.7828 6.08985 93.0587 6.74217C93.3313 7.38663 93.3805 7.99585 93.2063 8.56984C93.04 9.1405 92.7132 9.52888 92.2259 9.73497C91.7465 9.93774 91.3838 9.74833 91.1378 9.16674C90.8885 8.5773 90.8309 7.86047 90.9649 7.01625C91.0456 6.5281 91.1859 6.12595 91.3858 5.8098C91.4411 5.72155 91.4972 5.71173 91.554 5.78035C91.6187 5.84565 91.6295 5.91517 91.5866 5.98892C91.2704 6.5118 91.1378 7.18403 91.1888 8.00559C91.2334 8.74645 91.3993 9.2044 91.6864 9.37945C91.7892 9.44717 91.8995 9.45609 92.0174 9.40623C92.3632 9.25997 92.5363 8.91344 92.5367 8.36664C92.537 7.81985 92.391 7.20064 92.0984 6.50902C91.8458 5.91172 91.5407 5.38755 91.1832 4.93653C90.8257 4.48551 90.6224 4.22403 90.5734 4.15209C90.5271 4.69979 90.4845 5.31082 90.4454 5.98517L90.1271 6.11979C90.1995 5.04222 90.2627 4.22792 90.3169 3.6769C90.1356 3.16061 90.1667 2.85094 90.4104 2.74789Z" fill="#2B354F"/>
</g>
</svg>
